<svg width="16" height="17" viewBox="0 0 16 17" fill="none" xmlns="http://www.w3.org/2000/svg">
<path d="M6.55808 4.46716L4.53279 0.759396C4.44952 0.606869 4.3317 0.480636 4.19082 0.392991C4.04994 0.305347 3.89079 0.25928 3.72888 0.259277H0.472537C0.0931429 0.259277 -0.128927 0.728179 0.0884554 1.06964L3.34832 6.18539C4.21902 5.29168 5.32644 4.67828 6.55808 4.46716ZM14.5333 0.259277H11.2769C10.9476 0.259277 10.6424 0.449155 10.473 0.759396L8.44773 4.46716C9.67937 4.67828 10.7868 5.29168 11.6575 6.18507L14.9174 1.06964C15.1347 0.728179 14.9127 0.259277 14.5333 0.259277ZM7.50291 5.4085C4.65525 5.4085 2.34666 7.94449 2.34666 11.0726C2.34666 14.2008 4.65525 16.7368 7.50291 16.7368C10.3506 16.7368 12.6592 14.2008 12.6592 11.0726C12.6592 7.94449 10.3506 5.4085 7.50291 5.4085ZM10.2135 10.4695L9.10222 11.659L9.36502 13.3396C9.41189 13.6408 9.12302 13.8709 8.87722 13.7287L7.50291 12.9354L6.12888 13.7287C5.88279 13.8719 5.59422 13.6405 5.64109 13.3396L5.90388 11.659L4.79265 10.4695C4.59285 10.2559 4.7033 9.88285 4.97869 9.83909L6.51472 9.59321L7.20115 8.06389C7.26297 7.92615 7.3825 7.85824 7.50232 7.85824C7.62273 7.85824 7.74314 7.92712 7.80496 8.06389L8.49138 9.59321L10.0274 9.83909C10.3028 9.88285 10.4133 10.2559 10.2135 10.4695Z" fill="#03A9F4"/>
</svg>
